<?xml version="1.0" standalone="no"?>
<!DOCTYPE svg PUBLIC "-//W3C//DTD SVG 20010904//EN"
 "http://www.w3.org/TR/2001/REC-SVG-20010904/DTD/svg10.dtd">
<svg version="1.0" xmlns="http://www.w3.org/2000/svg"
 width="500.000000pt" height="500.000000pt" viewBox="0 0 500.000000 500.000000"
 preserveAspectRatio="xMidYMid meet">

<g transform="translate(0.000000,500.000000) scale(0.100000,-0.100000)"
fill="#000000" stroke="none">
<path d="M0 2500 l0 -2500 2500 0 2500 0 0 2500 0 2500 -2500 0 -2500 0 0
-2500z m875 -365 c17 -16 25 -35 25 -60 0 -35 0 -35 -45 -35 -38 0 -45 3 -45
20 0 16 -7 20 -31 20 -30 0 -30 -1 -27 -47 l3 -48 57 -5 c78 -7 91 -22 96
-109 7 -126 -19 -161 -123 -161 -30 0 -65 5 -79 11 -27 13 -50 64 -44 101 2
19 10 24 46 26 41 3 42 2 42 -27 0 -29 3 -31 36 -31 l35 0 -3 53 -3 52 -56 3
c-75 4 -92 22 -97 107 -5 75 10 128 41 143 12 6 50 11 85 11 54 1 66 -2 87
-24z m1130 0 c25 -24 25 -25 25 -220 l0 -195 -45 0 -45 0 0 70 0 70 -35 0 -35
0 0 -70 0 -70 -45 0 -45 0 0 191 c0 115 4 198 11 210 15 28 44 38 122 38 59 1
71 -2 92 -24z m273 9 c20 -14 24 -14 44 0 14 10 44 16 76 16 43 0 58 -5 77
-25 25 -24 25 -25 25 -220 l0 -195 -45 0 -45 0 0 185 0 185 -30 0 -30 0 0
-185 0 -185 -50 0 -50 0 0 186 0 185 -27 -3 -28 -3 -3 -182 -2 -183 -45 0 -45
0 0 191 c0 198 5 223 43 239 36 14 111 11 135 -6z m679 -7 c16 -15 18 -42 21
-217 l3 -200 -50 0 -51 0 0 186 0 185 -27 -3 -28 -3 -3 -182 -2 -183 -45 0
-45 0 0 191 c0 198 4 223 43 239 38 16 164 7 184 -13z m314 -6 c11 -14 19 -39
19 -62 l0 -39 -45 0 c-44 0 -45 1 -45 31 0 28 -2 30 -32 27 l-33 -3 0 -150 0
-150 33 -3 32 -3 0 55 c0 43 -3 56 -15 56 -10 0 -15 11 -15 35 l0 35 60 0 60
0 0 -99 c0 -137 -8 -146 -124 -146 -123 0 -120 -5 -124 210 -3 184 1 208 41
225 12 6 55 9 96 7 63 -2 76 -6 92 -26z m1036 5 l28 -24 0 -176 c0 -169 -1
-176 -23 -198 -20 -20 -32 -23 -107 -23 -122 0 -119 -5 -123 210 -3 184 1 209
41 225 12 5 52 9 89 9 57 1 71 -3 95 -23z m-3127 -26 c0 -39 -1 -40 -35 -40
l-35 0 0 -175 0 -175 -50 0 -50 0 0 175 0 175 -35 0 c-34 0 -35 1 -35 40 l0
40 120 0 120 0 0 -40z m260 22 c16 -13 24 -32 28 -70 5 -52 -11 -112 -30 -112
-5 0 -2 -7 6 -16 12 -12 16 -38 16 -115 l0 -99 -45 0 -44 0 -3 88 c-3 87 -3
87 -30 90 l-28 3 0 -90 0 -91 -45 0 -45 0 0 215 0 215 99 0 c80 0 103 -3 121
-18z m288 -19 l-3 -38 -53 -3 -53 -3 3 -47 3 -47 48 -3 c46 -3 47 -4 47 -38
l0 -34 -50 0 -50 0 0 -49 0 -50 53 -3 52 -3 3 -37 3 -38 -100 0 -101 0 0 215
0 215 101 0 100 0 -3 -37z m932 -178 l0 -215 -45 0 -45 0 0 215 0 215 45 0 45
0 0 -215z m1041 196 c22 -18 24 -27 24 -111 0 -84 -2 -93 -24 -111 -16 -13
-39 -19 -77 -19 l-54 0 0 -85 0 -85 -50 0 -50 0 0 215 0 215 104 0 c87 0 108
-3 127 -19z m296 -3 c19 -18 23 -32 23 -83 0 -37 -6 -69 -14 -80 -12 -17 -12
-22 0 -39 10 -14 14 -50 14 -113 l0 -93 -50 0 -50 0 0 90 c0 89 0 90 -25 90
-25 0 -25 -1 -25 -90 l0 -90 -50 0 -50 0 0 215 0 215 102 0 c91 0 104 -2 125
-22z"/>
<path d="M1870 2015 l0 -75 35 0 35 0 0 75 0 75 -35 0 -35 0 0 -75z"/>
<path d="M4174 2077 c-2 -7 -3 -76 -2 -152 l3 -140 33 -3 32 -3 0 155 0 156
-30 0 c-17 0 -33 -6 -36 -13z"/>
<path d="M1310 2025 l0 -65 30 0 30 0 0 65 0 65 -30 0 -30 0 0 -65z"/>
<path d="M3570 2019 l0 -70 28 3 c26 3 27 5 30 71 l3 67 -31 0 -30 0 0 -71z"/>
<path d="M3870 2025 l0 -66 28 3 c26 3 27 5 27 63 0 58 -1 60 -27 63 l-28 3 0
-66z"/>
</g>
</svg>
