<?xml version="1.0" standalone="no"?>
<!DOCTYPE svg PUBLIC "-//W3C//DTD SVG 20010904//EN"
 "http://www.w3.org/TR/2001/REC-SVG-20010904/DTD/svg10.dtd">
<svg version="1.0" xmlns="http://www.w3.org/2000/svg"
 width="50pt" height="60pt" viewBox="0 0 500.000000 500.000000"
 preserveAspectRatio="xMidYMid meet">

<g transform="translate(0.000000,500.000000) scale(0.100000,-0.100000)"
fill="#ff0000" stroke="none">
<path d="M1806 3614 c-14 -26 -26 -50 -26 -55 0 -5 -4 -9 -9 -9 -5 0 -11 -8
-15 -17 -3 -10 -10 -25 -16 -33 -18 -27 -140 -241 -140 -246 0 -3 -16 -30 -35
-60 -19 -30 -35 -56 -35 -59 0 -3 -17 -33 -38 -67 -21 -35 -50 -83 -64 -108
-14 -25 -69 -121 -123 -215 -152 -262 -142 -239 -122 -277 9 -18 29 -55 45
-83 109 -186 178 -305 195 -335 54 -96 103 -181 138 -237 22 -34 39 -65 39
-67 0 -3 28 -53 63 -113 35 -59 66 -115 70 -123 4 -8 11 -22 17 -30 5 -8 26
-43 45 -78 l36 -62 671 2 671 3 78 130 c43 72 78 136 79 143 0 6 5 12 10 12 6
0 10 5 10 11 0 5 28 58 63 117 35 59 66 114 70 122 4 8 15 29 26 45 10 17 28
48 41 70 12 22 37 65 56 96 19 31 34 62 34 68 0 6 4 11 9 11 5 0 11 8 15 18 3
9 10 24 15 32 12 18 97 164 134 233 l27 47 -27 48 c-14 26 -44 75 -65 110 -21
34 -38 65 -38 68 0 3 -16 30 -35 60 -19 30 -35 56 -35 59 0 2 -19 37 -43 77
-24 40 -46 80 -50 88 -4 8 -18 33 -32 55 -14 22 -28 47 -32 55 -7 15 -146 254
-163 280 -6 8 -13 22 -17 30 -4 8 -35 63 -70 123 l-64 107 -669 0 -668 0 -26
-46z m1281 -126 c17 -20 168 -275 232 -393 12 -22 30 -53 40 -70 10 -16 44
-75 76 -130 32 -55 66 -113 76 -130 10 -16 29 -50 42 -75 14 -25 41 -72 61
-105 20 -33 36 -71 36 -85 0 -14 -16 -52 -36 -85 -20 -33 -47 -80 -61 -105
-13 -25 -32 -58 -42 -75 -10 -16 -28 -48 -41 -70 -24 -44 -99 -170 -115 -196
-5 -9 -21 -36 -34 -60 -13 -24 -54 -97 -92 -161 -37 -64 -82 -143 -100 -175
-18 -32 -39 -63 -48 -70 -12 -9 -153 -12 -581 -13 l-565 0 -24 31 c-24 29 -60
90 -84 139 -6 14 -14 27 -18 30 -3 3 -23 37 -44 75 -21 39 -43 77 -49 85 -12
16 -18 26 -61 106 -14 27 -37 67 -51 89 -13 22 -27 47 -31 55 -4 8 -31 55 -60
103 -29 48 -53 90 -53 92 0 2 -10 19 -22 38 -13 18 -39 63 -58 100 l-35 67 25
47 c14 27 27 50 30 53 3 3 12 19 21 35 9 17 40 71 69 120 28 50 62 108 75 130
12 22 32 56 44 75 11 19 24 42 28 50 4 8 24 43 44 76 21 34 54 93 75 130 20
38 42 76 48 84 13 17 23 36 61 108 14 28 38 62 52 76 l26 26 562 0 562 0 20
-22z"/>
<path d="M2027 3151 c-26 -44 -47 -84 -47 -89 0 -6 -3 -12 -7 -14 -5 -1 -15
-16 -24 -33 -9 -16 -46 -81 -82 -144 -37 -62 -67 -115 -67 -118 0 -2 -16 -29
-35 -59 -19 -30 -35 -56 -35 -58 0 -3 -16 -32 -36 -65 -25 -42 -34 -68 -30
-83 3 -13 30 -65 61 -115 30 -51 55 -97 55 -103 0 -5 5 -10 10 -10 6 0 10 -4
10 -9 0 -6 29 -60 65 -121 36 -61 77 -132 91 -158 15 -26 46 -82 71 -124 l45
-78 427 0 427 0 22 30 c12 16 22 32 22 34 0 3 29 55 65 115 36 60 65 115 65
120 0 6 4 11 9 11 5 0 11 8 15 18 3 9 10 24 16 32 15 23 140 241 140 245 0 2
16 31 36 64 l36 61 -36 61 c-20 33 -36 62 -36 64 0 3 -25 45 -55 95 -30 50
-55 93 -55 96 0 3 -16 30 -35 60 -19 30 -35 56 -35 59 0 2 -29 54 -65 115 -36
61 -65 113 -65 116 0 3 -10 18 -22 34 l-22 30 -425 0 -426 0 -48 -79z"/>
</g>
</svg>
